<svg width="197" height="68" viewBox="0 0 197 68" fill="none" xmlns="http://www.w3.org/2000/svg">
<path d="M9.91684 29.1703L0 6.5708H8.58573L14.2783 21.3617H12.7176L18.7321 6.5708H26.7202L16.62 29.1703H9.91684Z" fill="white"/>
<path d="M28.1437 29.1703V6.5708H36.3165V29.1703H28.1437Z" fill="white"/>
<path d="M41.0447 29.1703V6.57086H48.988V10.5214H48.4827C49.2175 9.08176 50.2659 7.97125 51.6278 7.19123C52.9897 6.40981 54.5433 6.02051 56.2874 6.02051C58.0314 6.02051 59.5766 6.38041 60.7412 7.10021C61.9043 7.82001 62.7763 8.89971 63.3586 10.3393C63.9395 11.7789 64.2306 13.6008 64.2306 15.805V29.1717H56.0578V16.1257C56.0578 15.2071 55.95 14.4718 55.7359 13.9215C55.5217 13.3697 55.2152 12.965 54.8177 12.7046C54.4202 12.4455 53.8995 12.3139 53.257 12.3139C52.4312 12.3139 51.7188 12.4973 51.1225 12.8656C50.5262 13.2339 50.0587 13.7311 49.7228 14.3584C49.3855 14.9858 49.2175 15.7448 49.2175 16.6327V29.1731H41.0447V29.1703Z" fill="white"/>
<path d="M68.8665 29.1703V6.01904H77.0393V29.1703H68.8665Z" fill="white"/>
<path d="M90.7198 29.7205C87.5663 29.7205 85.2862 29.1478 83.8795 28.0023C82.4714 26.8568 81.7673 25.1371 81.7673 22.8446V6.01758H89.9401V22.6458C89.9401 23.1303 90.0395 23.549 90.2383 23.9019C90.437 24.2548 90.759 24.5195 91.2027 24.696C91.6464 24.8724 92.2049 24.9606 92.8781 24.9606C93.214 24.9606 93.536 24.9494 93.8425 24.927C94.1476 24.906 94.4542 24.8724 94.7607 24.8276L94.6683 29.3228C94.0259 29.4545 93.3834 29.5539 92.7395 29.6197C92.0971 29.6855 91.4238 29.7191 90.7198 29.7191V29.7205Z" fill="white"/>
<path d="M110.048 29.7206C107.294 29.7206 104.913 29.2305 102.908 28.2502C100.904 27.2699 99.3658 25.892 98.2936 24.1163C97.2215 22.3406 96.6868 20.2582 96.6868 17.8691C96.6868 15.4801 97.1991 13.4901 98.225 11.7144C99.2496 9.93874 100.658 8.54534 102.449 7.53426C104.24 6.52318 106.283 6.01904 108.579 6.01904C110.874 6.01904 112.848 6.50078 114.501 7.46565C116.154 8.43051 117.432 9.78469 118.334 11.531C119.237 13.2759 119.689 15.3596 119.689 17.7781V19.5692H103.528V15.6649H113.675L112.986 16.2615C112.986 14.5782 112.642 13.3375 111.953 12.5407C111.265 11.7452 110.261 11.3461 108.947 11.3461C107.998 11.3461 107.172 11.5688 106.468 12.0127C105.764 12.4566 105.235 13.1078 104.883 13.9648C104.531 14.8219 104.356 15.8946 104.356 17.1801V17.547C104.356 19.0174 104.563 20.1966 104.976 21.0844C105.389 21.9737 106.04 22.6164 106.927 23.0142C107.814 23.4119 108.931 23.6107 110.278 23.6107C111.441 23.6107 112.649 23.4427 113.904 23.1052C115.159 22.7691 116.292 22.2481 117.301 21.5438L119.321 27.0095C118.158 27.8063 116.742 28.4561 115.075 28.9616C113.406 29.4672 111.731 29.7192 110.047 29.7192L110.048 29.7206Z" fill="white"/>
<path d="M132.27 29.7205C130.862 29.7205 129.531 29.6127 128.275 29.3985C127.019 29.1842 125.865 28.9013 124.809 28.5484C123.754 28.1969 122.812 27.76 121.986 27.2391L123.823 22.003C124.618 22.4007 125.483 22.769 126.416 23.1051C127.35 23.4426 128.321 23.7017 129.332 23.8865C130.342 24.07 131.321 24.1624 132.27 24.1624C133.402 24.1624 134.213 24.0014 134.702 23.6807C135.191 23.3586 135.437 22.9385 135.437 22.4175C135.437 21.9582 135.276 21.6067 134.956 21.3616C134.634 21.1166 134.182 20.9485 133.601 20.8561L128.505 20.0747C126.607 19.7386 125.137 19.0342 124.097 17.9615C123.056 16.8902 122.536 15.4814 122.536 13.7351C122.536 12.1737 122.987 10.8181 123.891 9.66979C124.794 8.52147 126.033 7.62523 127.61 6.98245C129.186 6.33967 131 6.01758 133.051 6.01758C134.152 6.01758 135.239 6.11001 136.311 6.29346C137.381 6.47691 138.407 6.73738 139.387 7.07488C140.367 7.41237 141.254 7.8871 142.049 8.49907L140.076 13.6441C139.494 13.2772 138.798 12.9313 137.988 12.6106C137.176 12.2885 136.35 12.0294 135.509 11.8292C134.666 11.6303 133.893 11.5309 133.191 11.5309C131.906 11.5309 131.01 11.699 130.505 12.0365C129.999 12.3739 129.748 12.8179 129.748 13.3682C129.748 13.7351 129.892 14.0572 130.184 14.3331C130.475 14.609 130.895 14.7924 131.447 14.8848L136.543 15.7111C138.532 16.0486 140.048 16.7221 141.088 17.7318C142.128 18.7429 142.649 20.1209 142.649 21.8658C142.649 23.6107 142.212 24.9662 141.34 26.1145C140.468 27.2629 139.258 28.1521 137.713 28.7781C136.168 29.4055 134.354 29.7191 132.273 29.7191L132.27 29.7205Z" fill="white"/>
<path d="M157.842 29.7204C154.414 29.7204 151.874 28.9166 150.221 27.309C148.568 25.7013 147.742 23.2899 147.742 20.0746V12.5867H143.518V6.56922H147.742V0H155.915V6.56922H162.342V12.5867H155.915V19.7987C155.915 20.9316 156.175 21.7662 156.696 22.3026C157.215 22.8389 158.058 23.1064 159.221 23.1064C159.618 23.1064 160.04 23.0602 160.483 22.9692C160.927 22.8767 161.439 22.7549 162.022 22.6023L163.077 28.5273C162.404 28.8942 161.585 29.1855 160.621 29.3997C159.656 29.614 158.731 29.7218 157.842 29.7218V29.7204Z" fill="white"/>
<path d="M177.861 29.7206C175.106 29.7206 172.725 29.2305 170.721 28.2502C168.716 27.2699 167.178 25.892 166.106 24.1163C165.034 22.3406 164.499 20.2582 164.499 17.8691C164.499 15.4801 165.011 13.4901 166.037 11.7144C167.062 9.93874 168.47 8.54534 170.262 7.53426C172.052 6.52318 174.095 6.01904 176.391 6.01904C178.686 6.01904 180.66 6.50078 182.313 7.46565C183.966 8.43051 185.244 9.78469 186.147 11.531C187.05 13.2759 187.502 15.3596 187.502 17.7781V19.5692H171.341V15.6649H181.487L180.799 16.2615C180.799 14.5782 180.454 13.3375 179.766 12.5407C179.077 11.7452 178.073 11.3461 176.759 11.3461C175.81 11.3461 174.983 11.5688 174.28 12.0127C173.576 12.4566 173.047 13.1078 172.696 13.9648C172.343 14.8219 172.168 15.8946 172.168 17.1801V17.547C172.168 19.0174 172.375 20.1966 172.788 21.0844C173.201 21.9737 173.85 22.6164 174.739 23.0142C175.627 23.4119 176.744 23.6107 178.092 23.6107C179.255 23.6107 180.463 23.4427 181.718 23.1052C182.972 22.7691 184.106 22.2481 185.115 21.5438L187.135 27.0095C185.972 27.8063 184.555 28.4561 182.888 28.9616C181.22 29.4672 179.544 29.7192 177.861 29.7192V29.7206Z" fill="white"/>
<path d="M17.2484 67.4489V35.2988H25.5696V39.5574H25.0909C25.5374 38.122 26.478 36.9583 27.9127 36.0648C29.3474 35.1728 30.957 34.7261 32.743 34.7261C34.7516 34.7261 36.5362 35.2288 38.0983 36.2329C39.6603 37.237 40.8725 38.6486 41.7319 40.4677C42.5927 42.2854 43.0224 44.4868 43.0224 47.0705C43.0224 49.6542 42.5843 51.7758 41.7081 53.6243C40.8305 55.4742 39.6281 56.9012 38.0983 57.9067C36.5684 58.9108 34.7824 59.4135 32.743 59.4135C30.9892 59.4135 29.4118 58.9906 28.0093 58.1462C26.6054 57.3017 25.6494 56.208 25.1399 54.8692H25.7614V67.4517H17.2498L17.2484 67.4489ZM30.064 53.0487C31.3391 53.0487 32.3903 52.5782 33.2203 51.6372C34.0489 50.6961 34.4633 49.1725 34.4633 47.0677C34.4633 44.9629 34.0489 43.3917 33.2203 42.4506C32.3903 41.5096 31.3391 41.039 30.064 41.039C28.7889 41.039 27.6887 41.5096 26.8601 42.4506C26.0301 43.3917 25.6172 44.9307 25.6172 47.0677C25.6172 49.2047 26.0315 50.6961 26.8601 51.6372C27.6887 52.5782 28.7567 53.0487 30.064 53.0487Z" fill="white"/>
<path d="M45.2283 58.8365V35.2974H53.7398V58.8365H45.2283Z" fill="white"/>
<path d="M69.5452 59.4111C68.0783 59.4111 66.6912 59.299 65.3853 59.0764C64.078 58.8523 62.8742 58.5582 61.7755 58.1913C60.6753 57.8244 59.6955 57.3707 58.8347 56.8274L60.7481 51.3728C61.5767 51.7874 62.4767 52.1711 63.4495 52.5212C64.4209 52.8727 65.4343 53.1429 66.4855 53.3348C67.538 53.5266 68.557 53.6219 69.5452 53.6219C70.7237 53.6219 71.5691 53.4538 72.08 53.1191C72.5895 52.7844 72.8457 52.3461 72.8457 51.8042C72.8457 51.3252 72.6777 50.9597 72.3432 50.7035C72.0086 50.4486 71.5383 50.2735 70.9323 50.1769L65.6246 49.3633C63.6483 49.0132 62.117 48.2794 61.0336 47.1633C59.9489 46.0472 59.4072 44.5796 59.4072 42.7619C59.4072 41.1346 59.8775 39.7244 60.8181 38.5271C61.7587 37.3312 63.0492 36.3985 64.691 35.7277C66.3329 35.0583 68.2211 34.7236 70.357 34.7236C71.5048 34.7236 72.6357 34.8189 73.7527 35.0107C74.8682 35.2026 75.9362 35.4728 76.9566 35.8243C77.9769 36.1758 78.9007 36.6702 79.7308 37.3073L77.6746 42.6652C77.0685 42.2829 76.3435 41.923 75.4995 41.5883C74.6541 41.2536 73.7933 40.9834 72.917 40.7747C72.0394 40.5674 71.2346 40.4638 70.5026 40.4638C69.1631 40.4638 68.2309 40.6389 67.7046 40.9904C67.1783 41.3419 66.9152 41.804 66.9152 42.3782C66.9152 42.7605 67.0663 43.0965 67.3701 43.3822C67.6724 43.6693 68.1119 43.8612 68.6858 43.9564L73.9934 44.8176C76.065 45.1691 77.6438 45.8707 78.7272 46.9224C79.8105 47.9755 80.3536 49.4109 80.3536 51.2286C80.3536 53.0463 79.8987 54.4579 78.9903 55.6538C78.0819 56.8498 76.8222 57.7754 75.2125 58.4294C73.6029 59.0834 71.7133 59.4097 69.5466 59.4097L69.5452 59.4111Z" fill="white"/>
<path d="M96.054 59.4105C93.4072 59.4105 91.1047 58.9078 89.1437 57.9037C87.1828 56.8996 85.6599 55.4642 84.5765 53.5975C83.4918 51.7322 82.9501 49.5392 82.9501 47.0185C82.9501 44.4978 83.4918 42.274 84.5765 40.4395C85.6599 38.6049 87.1828 37.1948 89.1437 36.2047C91.1047 35.216 93.4072 34.7217 96.054 34.7217C97.6161 34.7217 99.1781 34.9457 100.74 35.3911C102.302 35.8378 103.577 36.4442 104.566 37.2088L102.27 43.0456C101.569 42.4714 100.723 42.0093 99.7352 41.6578C98.747 41.3077 97.8064 41.1313 96.9134 41.1313C95.2548 41.1313 93.9643 41.6508 93.0405 42.6857C92.1153 43.722 91.6534 45.1826 91.6534 47.0633C91.6534 48.944 92.1153 50.3164 93.0405 51.3695C93.9643 52.4226 95.2562 52.9477 96.9134 52.9477C97.805 52.9477 98.7456 52.7797 99.7352 52.445C100.723 52.1103 101.567 51.6398 102.27 51.0334L104.566 56.9178C103.577 57.6516 102.302 58.2496 100.74 58.7117C99.1781 59.1739 97.6161 59.4049 96.054 59.4049V59.4105Z" fill="white"/>
<path d="M107.196 58.8365V35.2974H115.707V58.8365H107.196Z" fill="white"/>
<path d="M120.633 58.8369V35.2978H128.905V39.4121H128.379C129.144 37.9137 130.236 36.757 131.654 35.9434C133.072 35.1297 134.69 34.7236 136.508 34.7236C138.326 34.7236 139.934 35.0989 141.147 35.8481C142.357 36.5974 143.266 37.7219 143.872 39.2217C144.476 40.7215 144.78 42.619 144.78 44.9157V58.8383H136.269V45.2504C136.269 44.2939 136.157 43.5279 135.934 42.9537C135.71 42.3796 135.391 41.9566 134.978 41.6864C134.564 41.4161 134.022 41.2788 133.352 41.2788C132.491 41.2788 131.749 41.4707 131.128 41.853C130.506 42.2353 130.019 42.7549 129.669 43.4074C129.318 44.0614 129.143 44.8512 129.143 45.7755V58.8369H120.631H120.633Z" fill="white"/>
<path d="M157.788 59.4108C155.971 59.4108 154.36 59.0677 152.957 58.3815C151.555 57.6953 150.463 56.771 149.682 55.6059C148.901 54.4422 148.51 53.1104 148.51 51.6106C148.51 49.8881 148.957 48.5326 149.85 47.5439C150.741 46.5552 152.185 45.8452 154.178 45.4153C156.17 44.984 158.808 44.7697 162.092 44.7697H164.722V48.7412H162.092C161.136 48.7412 160.322 48.8056 159.653 48.9331C158.984 49.0605 158.426 49.2202 157.979 49.412C157.533 49.6039 157.205 49.8503 157 50.1542C156.792 50.4581 156.689 50.832 156.689 51.2787C156.689 52.0125 156.944 52.6189 157.454 53.0964C157.964 53.5753 158.73 53.8148 159.75 53.8148C160.516 53.8148 161.208 53.6398 161.83 53.2883C162.451 52.9382 162.954 52.4508 163.336 51.8291C163.718 51.2073 163.91 50.4819 163.91 49.6529V44.1031C163.91 42.924 163.614 42.102 163.025 41.6399C162.435 41.1777 161.439 40.9466 160.037 40.9466C158.794 40.9466 157.446 41.1385 155.996 41.5208C154.544 41.9031 153.103 42.4941 151.668 43.2909L149.468 37.6936C150.296 37.1194 151.332 36.6097 152.576 36.1629C153.819 35.7162 155.135 35.3661 156.522 35.1098C157.909 34.855 159.191 34.7275 160.371 34.7275C162.985 34.7275 165.146 35.1098 166.851 35.8759C168.555 36.6419 169.831 37.7972 170.676 39.3446C171.52 40.892 171.943 42.8778 171.943 45.3019V58.8408H164.005V54.3918H164.292C164.132 55.3804 163.766 56.2501 163.192 56.9993C162.618 57.7485 161.869 58.3395 160.944 58.7694C160.019 59.1993 158.967 59.415 157.788 59.415V59.4108Z" fill="white"/>
<path d="M186.192 59.4111C184.725 59.4111 183.338 59.299 182.032 59.0764C180.724 58.8523 179.521 58.5582 178.422 58.1913C177.322 57.8244 176.342 57.3707 175.481 56.8274L177.394 51.3728C178.223 51.7874 179.123 52.1711 180.096 52.5212C181.067 52.8727 182.081 53.1429 183.132 53.3348C184.184 53.5266 185.203 53.6219 186.192 53.6219C187.37 53.6219 188.216 53.4538 188.726 53.1191C189.236 52.7844 189.492 52.3461 189.492 51.8042C189.492 51.3252 189.324 50.9597 188.99 50.7035C188.655 50.4486 188.185 50.2735 187.579 50.1769L182.271 49.3633C180.295 49.0132 178.763 48.2794 177.68 47.1633C176.595 46.0472 176.054 44.5796 176.054 42.7619C176.054 41.1346 176.524 39.7244 177.464 38.5271C178.405 37.3312 179.696 36.3985 181.337 35.7277C182.979 35.0583 184.867 34.7236 187.003 34.7236C188.151 34.7236 189.282 34.8189 190.399 35.0107C191.515 35.2026 192.583 35.4728 193.603 35.8243C194.623 36.1758 195.547 36.6702 196.377 37.3073L194.321 42.6652C193.715 42.2829 192.99 41.923 192.146 41.5883C191.3 41.2536 190.44 40.9834 189.563 40.7747C188.686 40.5674 187.881 40.4638 187.149 40.4638C185.809 40.4638 184.877 40.6389 184.351 40.9904C183.825 41.3419 183.562 41.804 183.562 42.3782C183.562 42.7605 183.713 43.0965 184.016 43.3822C184.319 43.6693 184.758 43.8612 185.332 43.9564L190.64 44.8176C192.711 45.1691 194.29 45.8707 195.374 46.9224C196.457 47.9755 197 49.4109 197 51.2286C197 53.0463 196.545 54.4579 195.637 55.6538C194.728 56.8498 193.469 57.7754 191.859 58.4294C190.249 59.0834 188.36 59.4097 186.193 59.4097L186.192 59.4111Z" fill="white"/>
</svg>
