<svg width="191" height="191" viewBox="0 0 191 191" fill="none" xmlns="http://www.w3.org/2000/svg">
<g clip-path="url(#clip0_71_4)">
<path d="M159.769 33.7766C152.873 26.3566 143.814 22.2226 134.628 20.5485C122.16 18.2765 109.176 20.3434 97.5865 26.2714C95.1477 27.5179 92.6689 29.0302 91.1203 31.5984C89.5716 34.1666 89.2806 38.0666 91.1397 40.3257C92.7017 42.2237 95.2896 42.4129 97.3973 41.5419C99.505 40.6709 101.266 38.9347 103.04 37.3227C109.493 31.4583 116.835 26.7899 124.775 24.7793C132.714 22.7686 141.287 23.5602 148.49 28.0177C167.933 40.0498 166.897 76.071 149.076 89.8437C144.391 93.4649 138.495 94.1524 132.931 93.5689C123.262 92.5563 114.121 88.0887 105.113 83.7814C96.1046 79.4741 86.8588 75.2217 77.1631 74.6786C69.3895 74.2424 61.1757 76.5939 55.1801 82.2705C63.5005 78.8299 72.5996 78.5251 81.4355 81.0067C105.325 87.7132 131.58 117.583 157.285 103.171C167.733 97.3143 172.28 81.9268 172.293 68.9688C172.305 55.9039 167.983 42.6166 159.769 33.7781V33.7766Z" fill="#76AADB"/>
<path d="M186.238 50.7805C183.798 34.9018 175.824 20.7421 164.063 12.5666C157.379 7.91987 150.217 3.64868 142.599 1.71892C138.613 0.709267 134.475 -0.327835 130.378 0.0982723C125.999 0.553268 120.796 4.36945 122.576 10.6571C123.219 12.9263 125.144 14.4025 127.116 14.8719C131.05 15.8093 135.28 14.0428 139.24 13.9518C144.79 13.8233 150.442 14.2869 155.711 16.5229C178.916 26.3725 186.188 62.4934 176.655 87.2567C172.732 97.4486 165.892 106.231 157.222 110.599C154.855 111.792 150.484 113.298 146.391 114.317C151.252 114.229 156.145 113.085 160.295 111.26C180.518 102.371 189.934 74.8288 186.24 50.7805H186.238Z" fill="#4A72B2"/>
<path d="M90.8013 92.4826C83.9131 87.209 76.2511 85.9971 67.9294 86.4867C60.573 86.9186 52.8722 89.7338 45.9112 92.172C36.8012 95.3628 28.8264 98.1837 19.2459 99.2208C9.9431 100.228 0.867096 95.6849 0 95.4422C8.87348 102.524 20.2452 105.961 31.0457 104.458C43.0419 102.79 53.7636 95.578 65.7416 93.7912C81.199 91.4859 97.829 99.2295 107.128 113.064C103.115 105.071 97.6884 97.7576 90.8001 92.484L90.8013 92.4826Z" fill="#5FA199"/>
<path d="M28.9089 151.817L20.3168 128.507H27.7556L32.6877 143.763H31.3356L36.5466 128.507H43.4676L34.7166 151.817H28.9089Z" fill="#76AADB"/>
<path d="M44.7009 151.817V128.507H51.782V151.817H44.7009Z" fill="#76AADB"/>
<path d="M55.8787 151.817V128.507H62.7609V132.581H62.3231C62.9597 131.096 63.8681 129.951 65.0481 129.147C66.228 128.341 67.5741 127.939 69.0852 127.939C70.5962 127.939 71.9351 128.31 72.9441 129.053C73.9519 129.795 74.7074 130.909 75.2119 132.394C75.7152 133.878 75.9674 135.758 75.9674 138.031V151.818H68.8863V138.362C68.8863 137.414 68.7929 136.656 68.6074 136.088C68.4218 135.519 68.1563 135.102 67.8118 134.833C67.4674 134.566 67.0163 134.43 66.4597 134.43C65.7442 134.43 65.1269 134.619 64.6103 134.999C64.0936 135.379 63.6886 135.892 63.3975 136.539C63.1053 137.186 62.9597 137.969 62.9597 138.885V151.82H55.8787V151.817Z" fill="#76AADB"/>
<path d="M79.9839 151.817V127.938H87.065V151.817H79.9839Z" fill="#76AADB"/>
<path d="M98.9181 152.384C96.1858 152.384 94.2103 151.794 92.9915 150.612C91.7715 149.431 91.1615 147.657 91.1615 145.292V127.936H98.2426V145.087C98.2426 145.587 98.3287 146.019 98.5009 146.383C98.6731 146.747 98.952 147.02 99.3365 147.202C99.7209 147.384 100.205 147.475 100.788 147.475C101.079 147.475 101.358 147.463 101.624 147.44C101.888 147.419 102.154 147.384 102.419 147.338L102.339 151.974C101.783 152.11 101.226 152.213 100.668 152.28C100.111 152.348 99.5281 152.383 98.9181 152.383V152.384Z" fill="#76AADB"/>
<path d="M115.665 152.384C113.278 152.384 111.215 151.879 109.478 150.868C107.742 149.857 106.409 148.435 105.48 146.604C104.551 144.772 104.088 142.624 104.088 140.16C104.088 137.696 104.532 135.644 105.421 133.812C106.308 131.98 107.528 130.543 109.081 129.5C110.632 128.457 112.402 127.938 114.391 127.938C116.38 127.938 118.09 128.434 119.522 129.43C120.954 130.425 122.062 131.822 122.844 133.623C123.626 135.423 124.018 137.572 124.018 140.066V141.914H110.016V137.887H118.807L118.21 138.502C118.21 136.766 117.912 135.486 117.315 134.664C116.718 133.844 115.849 133.432 114.71 133.432C113.888 133.432 113.172 133.662 112.562 134.12C111.952 134.578 111.494 135.249 111.19 136.133C110.884 137.017 110.732 138.124 110.732 139.45V139.828C110.732 141.345 110.912 142.561 111.27 143.477C111.627 144.394 112.191 145.057 112.96 145.467C113.729 145.877 114.697 146.082 115.863 146.082C116.871 146.082 117.918 145.909 119.006 145.561C120.092 145.214 121.074 144.677 121.949 143.95L123.699 149.588C122.691 150.41 121.464 151.08 120.019 151.602C118.574 152.123 117.122 152.383 115.663 152.383L115.665 152.384Z" fill="#5FA199"/>
<path d="M134.918 152.384C133.698 152.384 132.544 152.273 131.457 152.052C130.369 151.831 129.368 151.539 128.454 151.175C127.539 150.813 126.723 150.362 126.008 149.825L127.599 144.424C128.288 144.834 129.037 145.214 129.846 145.561C130.655 145.909 131.497 146.176 132.372 146.367C133.248 146.556 134.095 146.652 134.918 146.652C135.899 146.652 136.601 146.485 137.025 146.155C137.449 145.822 137.662 145.389 137.662 144.852C137.662 144.378 137.523 144.015 137.245 143.763C136.966 143.51 136.574 143.337 136.071 143.241L131.655 142.435C130.011 142.089 128.738 141.362 127.837 140.256C126.934 139.151 126.484 137.698 126.484 135.896C126.484 134.286 126.875 132.888 127.658 131.703C128.441 130.519 129.514 129.594 130.881 128.931C132.246 128.268 133.818 127.936 135.594 127.936C136.549 127.936 137.49 128.031 138.419 128.221C139.347 128.41 140.235 128.678 141.084 129.027C141.933 129.375 142.702 129.864 143.391 130.496L141.681 135.802C141.177 135.424 140.574 135.067 139.872 134.736C139.168 134.404 138.453 134.137 137.724 133.93C136.994 133.725 136.324 133.623 135.716 133.623C134.602 133.623 133.826 133.796 133.388 134.144C132.951 134.492 132.732 134.95 132.732 135.518C132.732 135.896 132.857 136.229 133.111 136.513C133.363 136.798 133.727 136.987 134.205 137.082L138.62 137.934C140.343 138.282 141.657 138.977 142.558 140.019C143.459 141.062 143.91 142.483 143.91 144.283C143.91 146.082 143.532 147.481 142.776 148.665C142.021 149.849 140.973 150.767 139.634 151.412C138.295 152.059 136.723 152.383 134.92 152.383L134.918 152.384Z" fill="#5FA199"/>
<path d="M157.074 152.385C154.104 152.385 151.903 151.556 150.471 149.897C149.039 148.239 148.323 145.752 148.323 142.435V134.712H144.663V128.505H148.323V121.729H155.404V128.505H160.973V134.712H155.404V142.151C155.404 143.319 155.63 144.18 156.081 144.734C156.531 145.287 157.261 145.563 158.269 145.563C158.613 145.563 158.978 145.515 159.363 145.421C159.747 145.326 160.191 145.2 160.695 145.043L161.61 151.154C161.026 151.532 160.317 151.833 159.481 152.054C158.646 152.275 157.844 152.386 157.074 152.386V152.385Z" fill="#5FA199"/>
<path d="M174.419 152.384C172.032 152.384 169.969 151.879 168.232 150.868C166.496 149.857 165.163 148.435 164.234 146.604C163.305 144.772 162.842 142.624 162.842 140.16C162.842 137.696 163.286 135.644 164.175 133.812C165.062 131.98 166.282 130.543 167.835 129.5C169.386 128.457 171.156 127.938 173.145 127.938C175.134 127.938 176.844 128.434 178.276 129.43C179.708 130.425 180.816 131.822 181.598 133.623C182.38 135.423 182.772 137.572 182.772 140.066V141.914H168.77V137.887H177.561L176.964 138.502C176.964 136.766 176.666 135.486 176.069 134.664C175.472 133.844 174.603 133.432 173.464 133.432C172.642 133.432 171.925 133.662 171.316 134.12C170.706 134.578 170.248 135.249 169.944 136.133C169.638 137.017 169.486 138.124 169.486 139.45V139.828C169.486 141.345 169.666 142.561 170.024 143.477C170.381 144.394 170.944 145.057 171.714 145.467C172.483 145.877 173.451 146.082 174.619 146.082C175.626 146.082 176.673 145.909 177.761 145.561C178.847 145.214 179.83 144.677 180.704 143.95L182.454 149.588C181.446 150.41 180.219 151.08 178.775 151.602C177.329 152.123 175.877 152.383 174.419 152.383V152.384Z" fill="#5FA199"/>
<path d="M35.2611 191V157.839H42.4707V162.231H42.056C42.4428 160.751 43.2578 159.55 44.5008 158.629C45.7439 157.709 47.1385 157.248 48.6859 157.248C50.4262 157.248 51.9724 157.767 53.3258 158.802C54.6792 159.838 55.7294 161.294 56.474 163.17C57.2199 165.045 57.5922 167.316 57.5922 169.981C57.5922 172.646 57.2126 174.834 56.4534 176.741C55.693 178.649 54.6513 180.121 53.3258 181.158C52.0003 182.193 50.4529 182.712 48.6859 182.712C47.1664 182.712 45.7997 182.276 44.5845 181.405C43.3682 180.534 42.5399 179.406 42.0984 178.025H42.6369V191.003H35.2623L35.2611 191ZM46.3648 176.147C47.4696 176.147 48.3803 175.662 49.0995 174.691C49.8174 173.72 50.1764 172.149 50.1764 169.978C50.1764 167.807 49.8174 166.186 49.0995 165.216C48.3803 164.245 47.4696 163.76 46.3648 163.76C45.26 163.76 44.3068 164.245 43.5889 165.216C42.8697 166.186 42.512 167.774 42.512 169.978C42.512 172.182 42.8709 173.72 43.5889 174.691C44.3068 175.662 45.2321 176.147 46.3648 176.147Z" fill="#4A72B2"/>
<path d="M59.5034 182.117V157.837H66.878V182.117H59.5034Z" fill="#4A72B2"/>
<path d="M80.572 182.709C79.3011 182.709 78.0992 182.593 76.9678 182.364C75.8351 182.133 74.7922 181.829 73.8402 181.451C72.887 181.072 72.0381 180.604 71.2922 180.044L72.95 174.418C73.668 174.846 74.4477 175.241 75.2906 175.602C76.1322 175.965 77.0102 176.244 77.921 176.442C78.8329 176.639 79.7158 176.738 80.572 176.738C81.5931 176.738 82.3256 176.564 82.7682 176.219C83.2097 175.874 83.4316 175.422 83.4316 174.863C83.4316 174.369 83.2861 173.992 82.9962 173.728C82.7064 173.465 82.2989 173.284 81.7738 173.184L77.1751 172.345C75.4628 171.984 74.1361 171.227 73.1974 170.076C72.2576 168.925 71.7882 167.411 71.7882 165.536C71.7882 163.858 72.1957 162.403 73.0107 161.168C73.8256 159.935 74.9437 158.973 76.3663 158.281C77.7888 157.59 79.4247 157.245 81.2754 157.245C82.2698 157.245 83.2497 157.343 84.2174 157.541C85.184 157.739 86.1093 158.018 86.9933 158.38C87.8774 158.743 88.6778 159.253 89.397 159.91L87.6155 165.436C87.0904 165.042 86.4622 164.671 85.7309 164.326C84.9984 163.981 84.2526 163.702 83.4934 163.486C82.7331 163.273 82.0357 163.166 81.4015 163.166C80.2409 163.166 79.4332 163.346 78.9773 163.709C78.5213 164.071 78.2933 164.548 78.2933 165.14C78.2933 165.535 78.4242 165.881 78.6874 166.176C78.9494 166.472 79.3302 166.67 79.8274 166.768L84.426 167.657C86.2208 168.019 87.5888 168.743 88.5274 169.828C89.4661 170.914 89.9366 172.394 89.9366 174.269C89.9366 176.144 89.5425 177.6 88.7554 178.834C87.9684 180.067 86.8769 181.022 85.4823 181.696C84.0877 182.371 82.4505 182.708 80.5732 182.708L80.572 182.709Z" fill="#4A72B2"/>
<path d="M103.54 182.709C101.247 182.709 99.2516 182.19 97.5526 181.155C95.8535 180.119 94.5341 178.639 93.5955 176.713C92.6556 174.789 92.1863 172.527 92.1863 169.927C92.1863 167.327 92.6556 165.033 93.5955 163.141C94.5341 161.249 95.8535 159.795 97.5526 158.773C99.2516 157.754 101.247 157.244 103.54 157.244C104.893 157.244 106.247 157.475 107.6 157.934C108.953 158.395 110.058 159.02 110.914 159.809L108.925 165.829C108.318 165.237 107.585 164.76 106.729 164.398C105.873 164.037 105.058 163.855 104.284 163.855C102.847 163.855 101.729 164.391 100.929 165.458C100.127 166.527 99.727 168.034 99.727 169.973C99.727 171.913 100.127 173.329 100.929 174.415C101.729 175.501 102.849 176.043 104.284 176.043C105.057 176.043 105.872 175.87 106.729 175.524C107.585 175.179 108.317 174.694 108.925 174.068L110.914 180.138C110.058 180.895 108.953 181.512 107.6 181.988C106.247 182.465 104.893 182.703 103.54 182.703V182.709Z" fill="#4A72B2"/>
<path d="M113.193 182.117V157.837H120.568V182.117H113.193Z" fill="#4A72B2"/>
<path d="M124.835 182.117V157.837H132.002V162.081H131.546C132.21 160.536 133.156 159.342 134.384 158.503C135.613 157.664 137.015 157.245 138.59 157.245C140.165 157.245 141.559 157.632 142.609 158.405C143.658 159.178 144.445 160.338 144.97 161.885C145.494 163.432 145.757 165.389 145.757 167.758V182.118H138.383V168.103C138.383 167.116 138.285 166.326 138.093 165.734C137.899 165.142 137.622 164.706 137.264 164.427C136.905 164.148 136.436 164.006 135.855 164.006C135.109 164.006 134.467 164.204 133.928 164.599C133.39 164.993 132.968 165.529 132.665 166.202C132.36 166.877 132.209 167.691 132.209 168.645V182.117H124.834H124.835Z" fill="#4A72B2"/>
<path d="M157.027 182.709C155.453 182.709 154.057 182.355 152.842 181.647C151.627 180.94 150.681 179.986 150.004 178.785C149.327 177.584 148.989 176.211 148.989 174.664C148.989 172.887 149.376 171.489 150.149 170.469C150.922 169.449 152.172 168.717 153.899 168.273C155.625 167.829 157.911 167.608 160.756 167.608H163.035V171.704H160.756C159.928 171.704 159.223 171.77 158.643 171.902C158.064 172.033 157.58 172.198 157.193 172.396C156.806 172.594 156.522 172.848 156.344 173.161C156.165 173.475 156.075 173.86 156.075 174.321C156.075 175.078 156.296 175.704 156.738 176.196C157.18 176.69 157.843 176.937 158.727 176.937C159.39 176.937 159.991 176.757 160.529 176.394C161.068 176.033 161.503 175.53 161.834 174.889C162.165 174.248 162.331 173.499 162.331 172.644V166.92C162.331 165.704 162.075 164.856 161.565 164.379C161.053 163.903 160.191 163.664 158.976 163.664C157.899 163.664 156.731 163.862 155.475 164.256C154.217 164.651 152.968 165.26 151.725 166.082L149.818 160.309C150.536 159.717 151.434 159.191 152.512 158.73C153.589 158.269 154.729 157.908 155.931 157.644C157.132 157.381 158.243 157.25 159.265 157.25C161.53 157.25 163.402 157.644 164.879 158.434C166.356 159.224 167.461 160.416 168.194 162.012C168.925 163.608 169.291 165.656 169.291 168.156V182.121H162.414V177.532H162.662C162.524 178.552 162.206 179.449 161.709 180.222C161.212 180.995 160.563 181.604 159.761 182.047C158.96 182.491 158.049 182.713 157.027 182.713V182.709Z" fill="#4A72B2"/>
<path d="M181.637 182.709C180.366 182.709 179.164 182.593 178.032 182.364C176.9 182.133 175.857 181.829 174.905 181.451C173.952 181.072 173.103 180.604 172.357 180.044L174.015 174.418C174.733 174.846 175.512 175.241 176.355 175.602C177.197 175.965 178.075 176.244 178.986 176.442C179.898 176.639 180.78 176.738 181.637 176.738C182.658 176.738 183.39 176.564 183.833 176.219C184.274 175.874 184.496 175.422 184.496 174.863C184.496 174.369 184.351 173.992 184.061 173.728C183.771 173.465 183.363 173.284 182.838 173.184L178.24 172.345C176.527 171.984 175.201 171.227 174.262 170.076C173.322 168.925 172.853 167.411 172.853 165.536C172.853 163.858 173.26 162.403 174.075 161.168C174.89 159.935 176.008 158.973 177.431 158.281C178.853 157.59 180.489 157.245 182.34 157.245C183.334 157.245 184.314 157.343 185.282 157.541C186.249 157.739 187.174 158.018 188.058 158.38C188.942 158.743 189.742 159.253 190.462 159.91L188.68 165.436C188.155 165.042 187.527 164.671 186.795 164.326C186.063 163.981 185.317 163.702 184.558 163.486C183.798 163.273 183.1 163.166 182.466 163.166C181.305 163.166 180.498 163.346 180.042 163.709C179.586 164.071 179.358 164.548 179.358 165.14C179.358 165.535 179.489 165.881 179.752 166.176C180.014 166.472 180.395 166.67 180.892 166.768L185.491 167.657C187.285 168.019 188.653 168.743 189.592 169.828C190.531 170.914 191.001 172.394 191.001 174.269C191.001 176.144 190.607 177.6 189.82 178.834C189.033 180.067 187.941 181.022 186.547 181.696C185.152 182.371 183.515 182.708 181.638 182.708L181.637 182.709Z" fill="#4A72B2"/>
</g>
<defs>
<clipPath id="clip0_71_4">
<rect width="191" height="191" fill="white"/>
</clipPath>
</defs>
</svg>
