<svg width="48" height="48" viewBox="0 0 48 48" fill="none" xmlns="http://www.w3.org/2000/svg">
<path d="M38 16C36.3333 16 34.9167 15.4167 33.75 14.25C32.5833 13.0833 32 11.6667 32 10C32 8.33333 32.5833 6.91667 33.75 5.75C34.9167 4.58333 36.3333 4 38 4C39.6667 4 41.0833 4.58333 42.25 5.75C43.4167 6.91667 44 8.33333 44 10C44 11.6667 43.4167 13.0833 42.25 14.25C41.0833 15.4167 39.6667 16 38 16ZM8 40C6.9 40 5.95833 39.6083 5.175 38.825C4.39167 38.0417 4 37.1 4 36V12C4 10.9 4.39167 9.95833 5.175 9.175C5.95833 8.39167 6.9 8 8 8H28.2C28.0667 8.66667 28 9.33333 28 10C28 10.6667 28.0667 11.3333 28.2 12C28.4333 13.0667 28.8167 14.0583 29.35 14.975C29.8833 15.8917 30.5333 16.7 31.3 17.4L24 22L8 12V16L24 26L34.55 19.4C35.1167 19.6 35.6833 19.75 36.25 19.85C36.8167 19.95 37.4 20 38 20C39.0667 20 40.1167 19.8333 41.15 19.5C42.1833 19.1667 43.1333 18.6667 44 18V36C44 37.1 43.6083 38.0417 42.825 38.825C42.0417 39.6083 41.1 40 40 40H8Z" fill="#76AADB"/>
</svg>
